<?xml version="1.0" encoding="UTF-8" standalone="no"?>
<svg
   xmlns:dc="http://purl.org/dc/elements/1.1/"
   xmlns:cc="http://creativecommons.org/ns#"
   xmlns:rdf="http://www.w3.org/1999/02/22-rdf-syntax-ns#"
   xmlns:svg="http://www.w3.org/2000/svg"
   xmlns="http://www.w3.org/2000/svg"
   xmlns:sodipodi="http://sodipodi.sourceforge.net/DTD/sodipodi-0.dtd"
   xmlns:inkscape="http://www.inkscape.org/namespaces/inkscape"
   width="1920"
   height="1080"
   viewBox="0 0 508 285.75001"
   version="1.1"
   id="svg8"
   inkscape:version="1.0 (4035a4fb49, 2020-05-01)"
   sodipodi:docname="Omou Full.svg"
   inkscape:export-filename="C:\Users\rapha\Google Drive\Projekte\Digital\OmOu\Interaction Screens\Omou Interaction-06.png"
   inkscape:export-xdpi="96"
   inkscape:export-ydpi="96">
  <defs
     id="defs2" />
  <sodipodi:namedview
     id="base"
     pagecolor="#ffffff"
     bordercolor="#8d008d"
     borderopacity="1"
     inkscape:pageopacity="0.0"
     inkscape:pageshadow="2"
     inkscape:zoom="0.175"
     inkscape:cx="261.07719"
     inkscape:cy="-175.03181"
     inkscape:document-units="px"
     inkscape:current-layer="layer11"
     showgrid="false"
     units="px"
     borderlayer="true"
     inkscape:window-width="1920"
     inkscape:window-height="1028"
     inkscape:window-x="-6"
     inkscape:window-y="-6"
     inkscape:window-maximized="1"
     inkscape:document-rotation="0"
     inkscape:snap-global="true"
     showguides="true"
     inkscape:guide-bbox="true" />
  <metadata
     id="metadata5">
    <rdf:RDF>
      <cc:Work
         rdf:about="">
        <dc:format>image/svg+xml</dc:format>
        <dc:type
           rdf:resource="http://purl.org/dc/dcmitype/StillImage" />
        <dc:title></dc:title>
      </cc:Work>
    </rdf:RDF>
  </metadata>
  <g
     inkscape:label="All"
     id="layer11"
     inkscape:groupmode="layer">
    <rect
       style="fill:#ffffff;fill-opacity:1;stroke:none;stroke-width:3.175;stroke-linecap:round;stroke-linejoin:round;stroke-miterlimit:4;stroke-dasharray:none;stroke-opacity:1"
       id="rect941"
       width="532.94647"
       height="308.42856"
       x="-12.851199"
       y="-6.0476289"
       rx="0"
       ry="0" />
    <ellipse
       style="display:inline;fill:#d9d9d9;fill-opacity:1;stroke-width:0.79375;stroke-linecap:round;stroke-linejoin:round"
       id="path860"
       cx="259.19769"
       cy="221.69724"
       rx="176.98807"
       ry="136.63899" />
    <ellipse
       ry="107.23595"
       rx="140.76552"
       cy="211.47287"
       cx="259.19769"
       id="ellipse864"
       style="display:inline;fill:#ffffff;fill-opacity:1;stroke-width:0.79375;stroke-linecap:round;stroke-linejoin:round" />
    <path
       id="ellipse864-2"
       style="display:inline;fill:#f2f2f2;fill-opacity:1;stroke-width:0.79375;stroke-linecap:round;stroke-linejoin:round"
       d="m 166.28494,157.11585 a 94.558709,80.917787 0 0 0 -25.74261,55.49583 94.558709,80.917787 0 0 0 94.55907,80.91755 94.558709,80.917787 0 0 0 24.88274,-2.85152 99.850373,85.446083 0 0 1 -11.65355,0.58396 99.850373,85.446083 0 0 1 -99.85076,-85.44648 99.850373,85.446083 0 0 1 17.80511,-48.69934 z" />
    <path
       id="ellipse968"
       style="display:inline;fill:#f7f7f7;fill-opacity:1;stroke-width:0.79375;stroke-linecap:round;stroke-linejoin:round"
       d="m 277.29392,156.7643 a 66.138437,50.384624 0 0 0 -38.50476,9.41925 69.632368,53.046316 0 0 1 30.30146,-5.28603 69.632368,53.046316 0 0 1 69.63233,53.04628 69.632368,53.046316 0 0 1 -4.62788,19.01563 66.138437,50.384624 0 0 0 9.33725,-25.81042 66.138437,50.384624 0 0 0 -66.1384,-50.38471 z" />
    <path
       sodipodi:nodetypes="cc"
       id="path1284"
       d="m 322.79164,60.476185 c 25.69044,13.4068 30.74591,43.448415 13.60718,78.619055"
       style="display:inline;fill:none;fill-opacity:1;stroke:#000000;stroke-width:1.5875;stroke-linecap:round;stroke-linejoin:round;stroke-miterlimit:4;stroke-dasharray:none;stroke-opacity:0.701961" />
    <path
       inkscape:transform-center-x="-1.460399"
       inkscape:transform-center-y="-2.3500288"
       style="display:inline;fill:none;fill-opacity:1;stroke:#000000;stroke-width:1.5875;stroke-linecap:round;stroke-linejoin:round;stroke-miterlimit:4;stroke-dasharray:none;stroke-opacity:0.701961"
       d="m 334.56481,134.08266 1.74262,5.1128 4.83524,-2.31624"
       id="path1286"
       sodipodi:nodetypes="ccc" />
    <path
       d="m 257.23348,265.63923 a 66.138437,50.384624 0 0 0 38.50476,-9.41924 69.632368,53.046316 0 0 1 -30.30146,5.28605 69.632368,53.046316 0 0 1 -69.63233,-53.04628 69.632368,53.046316 0 0 1 4.62788,-19.01566 66.138437,50.384624 0 0 0 -9.33725,25.81042 66.138437,50.384624 0 0 0 66.1384,50.38471 z"
       style="display:inline;fill:#e5e5e5;fill-opacity:1;stroke-width:0.79375;stroke-linecap:round;stroke-linejoin:round"
       id="ellipse968-8" />
    <rect
       ry="11.058604"
       rx="11.058604"
       y="212.9194"
       x="402.77521"
       height="58.786827"
       width="97.286102"
       id="rect1383"
       style="display:inline;fill:#d9d9d9;fill-opacity:1;stroke:none;stroke-width:0.79375;stroke-linecap:round;stroke-linejoin:round;stroke-opacity:1" />
    <path
       transform="matrix(-0.47184184,-0.8816832,-0.8816832,0.47184184,473.93969,784.83816)"
       d="m 473.53191,-244.32766 c -3.00191,-1.17583 -3.9214,-4.88588 -2.64367,-7.64881 1.79797,-3.88789 6.71924,-5.02589 10.37838,-3.16776 4.81205,2.44358 6.17712,8.64599 3.70148,13.236 -3.11149,5.76893 -10.65051,7.36815 -16.2019,4.24513 -6.75449,-3.79985 -8.59408,-12.72214 -4.79853,-19.26213 1.54623,-2.66424 3.90443,-4.81486 6.67512,-6.15359"
       sodipodi:t0="0.36000001"
       sodipodi:argument="-8.8417015"
       sodipodi:radius="15.960826"
       sodipodi:revolution="2.0999999"
       sodipodi:expansion="1.2"
       sodipodi:cy="-248.13777"
       sodipodi:cx="476.25644"
       id="path1731"
       style="display:inline;fill:none;fill-rule:evenodd;stroke:#ffffff;stroke-width:3.175;stroke-miterlimit:4;stroke-dasharray:none;stroke-opacity:1"
       sodipodi:type="spiral" />
    <path
       style="display:inline;fill:none;fill-opacity:1;stroke:#000000;stroke-width:1.5875;stroke-linecap:round;stroke-linejoin:round;stroke-miterlimit:4;stroke-dasharray:none;stroke-opacity:0.701961"
       d="m 444.99853,248.98392 c -15.90508,3.96669 -46.89459,1.35197 -61.86527,-12.26732"
       id="path1284-9"
       sodipodi:nodetypes="cc" />
    <path
       sodipodi:nodetypes="ccc"
       id="path1286-4"
       d="m 388.40299,235.86829 -5.35077,0.73954 1.35546,5.18723"
       style="display:inline;fill:none;fill-opacity:1;stroke:#000000;stroke-width:1.5875;stroke-linecap:round;stroke-linejoin:round;stroke-miterlimit:4;stroke-dasharray:none;stroke-opacity:0.701961"
       inkscape:transform-center-y="2.1002756"
       inkscape:transform-center-x="-2.4890802" />
    <rect
       style="display:inline;fill:#d9d9d9;fill-opacity:1;stroke:none;stroke-width:0.79375;stroke-linecap:round;stroke-linejoin:round;stroke-opacity:1"
       id="rect1383-0"
       width="97.286102"
       height="58.786827"
       x="402.77527"
       y="212.9194"
       rx="11.058604"
       ry="11.058604" />
    <path
       sodipodi:type="spiral"
       style="display:inline;fill:none;fill-rule:evenodd;stroke:#ffffff;stroke-width:3.175;stroke-miterlimit:4;stroke-dasharray:none;stroke-opacity:1"
       id="path1731-1"
       sodipodi:cx="476.25644"
       sodipodi:cy="-248.13777"
       sodipodi:expansion="1.2"
       sodipodi:revolution="2.0999999"
       sodipodi:radius="15.960826"
       sodipodi:argument="-8.8417015"
       sodipodi:t0="0.36000001"
       d="m 473.53191,-244.32766 c -3.00191,-1.17583 -3.9214,-4.88588 -2.64367,-7.64881 1.79797,-3.88789 6.71924,-5.02589 10.37838,-3.16776 4.81205,2.44358 6.17712,8.64599 3.70148,13.236 -3.11149,5.76893 -10.65051,7.36815 -16.2019,4.24513 -6.75449,-3.79985 -8.59408,-12.72214 -4.79853,-19.26213 1.54623,-2.66424 3.90443,-4.81486 6.67512,-6.15359"
       transform="matrix(-0.47184184,-0.8816832,-0.8816832,0.47184184,473.93969,784.83816)" />
    <path
       d="m 21.494272,13.896305 c -2.02565,0 -3.68424,0.66738 -5.08029,2.03709 -1.38933,1.36956 -2.0624,2.99096 -2.0624,4.97075 0,1.9582 0.67006,3.57637 2.05465,4.96094 1.38456,1.38457 3.00479,2.05672 4.963,2.05672 1.97353,0 3.59569,-0.66821 4.97232,-2.04483 1.3766,-1.37663 2.04533,-2.9993 2.04533,-4.97283 0,-1.93716 -0.66466,-3.55269 -2.03708,-4.94491 -1.3652,-1.39158 -2.94965,-2.06293 -4.85553,-2.06293 z m -0.12504,3.21479 c 1.00153,0 1.90294,0.38999 2.59363,1.11931 l 0.003,0.002 c 0.69596,0.72171 1.06039,1.6459 1.06039,2.67167 0,1.02768 -0.36539,1.9548 -1.06246,2.68356 -0.69146,0.72326 -1.5925,1.10743 -2.59363,1.10743 -0.99044,0 -1.89084,-0.39023 -2.59365,-1.11673 l -0.003,-0.002 c -0.69644,-0.72811 -1.0604,-1.65064 -1.0604,-2.67219 0,-1.02154 0.36396,-1.94563 1.0604,-2.67374 0.69689,-0.72855 1.59927,-1.11931 2.59572,-1.11931 z"
       style="color:#000000;font-style:normal;font-variant:normal;font-weight:normal;font-stretch:normal;font-size:21.4736px;line-height:1.25;font-family:'Bauhaus 93';-inkscape-font-specification:'Bauhaus 93, Normal';font-variant-ligatures:normal;font-variant-position:normal;font-variant-caps:normal;font-variant-numeric:normal;font-variant-alternates:normal;font-variant-east-asian:normal;font-feature-settings:normal;font-variation-settings:normal;text-indent:0;text-align:start;text-decoration:none;text-decoration-line:none;text-decoration-style:solid;text-decoration-color:#000000;letter-spacing:0px;word-spacing:0px;text-transform:none;writing-mode:lr-tb;direction:ltr;text-orientation:mixed;dominant-baseline:auto;baseline-shift:baseline;text-anchor:start;white-space:normal;shape-padding:0;shape-margin:0;inline-size:0;clip-rule:nonzero;display:inline;overflow:visible;visibility:visible;isolation:auto;mix-blend-mode:normal;color-interpolation:sRGB;color-interpolation-filters:linearRGB;solid-color:#000000;solid-opacity:1;vector-effect:none;fill:#b2b2b2;fill-opacity:1;fill-rule:nonzero;stroke:none;stroke-width:1.00013;stroke-linecap:butt;stroke-linejoin:miter;stroke-miterlimit:4;stroke-dasharray:none;stroke-dashoffset:0;stroke-opacity:1;color-rendering:auto;image-rendering:auto;shape-rendering:auto;text-rendering:auto;enable-background:accumulate;stop-color:#000000"
       id="path962" />
    <path
       d="m 33.605682,17.902265 c -1.00322,0 -1.80414,0.34296 -2.51198,1.0821 v 0.002 h -0.003 c -0.7068,0.73181 -1.04282,1.57845 -1.04282,2.64067 v 5.93762 h 2.92023 v -5.13095 c 0,-0.43451 0.0488,-0.79729 0.22635,-1.11518 0.17756,-0.31788 0.55806,-0.54725 0.92398,-0.54725 0.35298,0 0.74803,0.18372 0.92757,0.50798 0.18783,0.32725 0.21291,0.6776 0.21291,1.14463 v 5.14077 h 2.91973 v -5.13095 c 0,-0.43525 0.0498,-0.80087 0.23048,-1.11931 0.18071,-0.31844 0.56468,-0.54312 0.93171,-0.54312 0.35533,0 0.7539,0.18381 0.93173,0.51211 0.17676,0.32633 0.1974,0.67216 0.1974,1.1405 v 5.14077 h 2.9218 v -5.4963 c 0,-1.34592 -0.29546,-2.29916 -0.81651,-2.91972 h -0.003 v -0.002 c -0.70321,-0.84636 -1.57565,-1.24437 -2.76159,-1.24437 -0.86879,0 -1.76901,0.40895 -2.73627,1.33015 l -0.36534,0.34572 -0.34364,-0.36535 c -0.85092,-0.90249 -1.74183,-1.31052 -2.76159,-1.31052 z"
       style="color:#000000;font-style:normal;font-variant:normal;font-weight:normal;font-stretch:normal;font-size:21.4736px;line-height:1.25;font-family:'Bauhaus 93';-inkscape-font-specification:'Bauhaus 93, Normal';font-variant-ligatures:normal;font-variant-position:normal;font-variant-caps:normal;font-variant-numeric:normal;font-variant-alternates:normal;font-variant-east-asian:normal;font-feature-settings:normal;font-variation-settings:normal;text-indent:0;text-align:start;text-decoration:none;text-decoration-line:none;text-decoration-style:solid;text-decoration-color:#000000;letter-spacing:0px;word-spacing:0px;text-transform:none;writing-mode:lr-tb;direction:ltr;text-orientation:mixed;dominant-baseline:auto;baseline-shift:baseline;text-anchor:start;white-space:normal;shape-padding:0;shape-margin:0;inline-size:0;clip-rule:nonzero;display:inline;overflow:visible;visibility:visible;isolation:auto;mix-blend-mode:normal;color-interpolation:sRGB;color-interpolation-filters:linearRGB;solid-color:#000000;solid-opacity:1;vector-effect:none;fill:#b2b2b2;fill-opacity:1;fill-rule:nonzero;stroke:none;stroke-width:1.00013;stroke-linecap:butt;stroke-linejoin:miter;stroke-miterlimit:4;stroke-dasharray:none;stroke-dashoffset:0;stroke-opacity:1;color-rendering:auto;image-rendering:auto;shape-rendering:auto;text-rendering:auto;enable-background:accumulate;stop-color:#000000"
       id="path968" />
    <path
       d="m 52.216952,13.896305 c -2.02565,0 -3.68424,0.66738 -5.08029,2.03709 -1.38933,1.36956 -2.06243,2.99096 -2.06243,4.97075 0,1.9582 0.67008,3.57637 2.05468,4.96094 1.38456,1.38457 3.00479,2.05672 4.963,2.05672 1.97352,0 3.59568,-0.66821 4.97229,-2.04483 1.37662,-1.37663 2.04536,-2.9993 2.04536,-4.97283 0,-1.93716 -0.66466,-3.55269 -2.03708,-4.94491 -1.3652,-1.39158 -2.94968,-2.06293 -4.85553,-2.06293 z m -0.12504,3.21479 c 1.0015,0 1.905,0.38999 2.59569,1.11931 l 0.003,0.002 c 0.69596,0.72171 1.05833,1.6459 1.05833,2.67167 0,1.02768 -0.36332,1.9548 -1.0604,2.68356 -0.69146,0.72326 -1.59456,1.10743 -2.59569,1.10743 -0.99044,0 -1.88928,-0.39023 -2.5921,-1.11673 h -0.003 v -0.002 c -0.69647,-0.72811 -1.06246,-1.65064 -1.06246,-2.67219 0,-1.02154 0.36599,-1.94563 1.06246,-2.67374 0.69688,-0.72855 1.59718,-1.11931 2.59363,-1.11931 z"
       style="color:#000000;font-style:normal;font-variant:normal;font-weight:normal;font-stretch:normal;font-size:21.4736px;line-height:1.25;font-family:'Bauhaus 93';-inkscape-font-specification:'Bauhaus 93, Normal';font-variant-ligatures:normal;font-variant-position:normal;font-variant-caps:normal;font-variant-numeric:normal;font-variant-alternates:normal;font-variant-east-asian:normal;font-feature-settings:normal;font-variation-settings:normal;text-indent:0;text-align:start;text-decoration:none;text-decoration-line:none;text-decoration-style:solid;text-decoration-color:#000000;letter-spacing:0px;word-spacing:0px;text-transform:none;writing-mode:lr-tb;direction:ltr;text-orientation:mixed;dominant-baseline:auto;baseline-shift:baseline;text-anchor:start;white-space:normal;shape-padding:0;shape-margin:0;inline-size:0;clip-rule:nonzero;display:inline;overflow:visible;visibility:visible;isolation:auto;mix-blend-mode:normal;color-interpolation:sRGB;color-interpolation-filters:linearRGB;solid-color:#000000;solid-opacity:1;vector-effect:none;fill:#b2b2b2;fill-opacity:1;fill-rule:nonzero;stroke:none;stroke-width:1.00013;stroke-linecap:butt;stroke-linejoin:miter;stroke-miterlimit:4;stroke-dasharray:none;stroke-dashoffset:0;stroke-opacity:1;color-rendering:auto;image-rendering:auto;shape-rendering:auto;text-rendering:auto;enable-background:accumulate;stop-color:#000000"
       id="path974" />
    <path
       d="m 60.100212,13.646705 v 1.68156 c 0,1.74345 0.49046,2.95963 1.26762,3.74809 0.77713,0.78845 1.85801,1.16634 3.10367,1.16634 1.24568,0 2.32603,-0.37789 3.10319,-1.16634 0.77713,-0.78846 1.26762,-2.00464 1.26762,-3.74809 v -1.68156 h -2.54455 v 1.71876 c 0,0.87729 -0.20368,1.48026 -0.55296,1.86707 -0.34925,0.38682 -0.82666,0.52348 -1.2733,0.52348 -0.44665,0 -0.92454,-0.13666 -1.27381,-0.52348 -0.34928,-0.38681 -0.55243,-0.98978 -0.55243,-1.86707 v -1.71876 z"
       style="color:#000000;font-style:normal;font-variant:normal;font-weight:normal;font-stretch:normal;font-size:21.4736px;line-height:1.25;font-family:'Bauhaus 93';-inkscape-font-specification:'Bauhaus 93, Normal';font-variant-ligatures:normal;font-variant-position:normal;font-variant-caps:normal;font-variant-numeric:normal;font-variant-alternates:normal;font-variant-east-asian:normal;font-feature-settings:normal;font-variation-settings:normal;text-indent:0;text-align:start;text-decoration:none;text-decoration-line:none;text-decoration-style:solid;text-decoration-color:#000000;letter-spacing:0px;word-spacing:0px;text-transform:none;writing-mode:lr-tb;direction:ltr;text-orientation:mixed;dominant-baseline:auto;baseline-shift:baseline;text-anchor:start;white-space:normal;shape-padding:0;shape-margin:0;inline-size:0;clip-rule:nonzero;display:inline;overflow:visible;visibility:visible;isolation:auto;mix-blend-mode:normal;color-interpolation:sRGB;color-interpolation-filters:linearRGB;solid-color:#000000;solid-opacity:1;vector-effect:none;fill:#b2b2b2;fill-opacity:1;fill-rule:nonzero;stroke:none;stroke-width:0.529167;stroke-linecap:butt;stroke-linejoin:miter;stroke-miterlimit:4;stroke-dasharray:none;stroke-dashoffset:0;stroke-opacity:1;color-rendering:auto;image-rendering:auto;shape-rendering:auto;text-rendering:auto;enable-background:accumulate;stop-color:#000000"
       id="path980" />
  </g>
</svg>
