<svg width="1338" height="1033" viewBox="0 0 1338 1033" fill="none" xmlns="http://www.w3.org/2000/svg">
<path d="M668.931 1032.86C1038.37 1032.86 1337.86 801.648 1337.86 516.431C1337.86 231.214 1038.37 0 668.931 0C299.491 0 0 231.214 0 516.431C0 801.648 299.491 1032.86 668.931 1032.86Z" fill="#D9D9D9"/>
<path d="M668.931 883.089C962.762 883.089 1200.96 701.629 1200.96 477.788C1200.96 253.946 962.762 72.4863 668.931 72.4863C375.101 72.4863 136.904 253.946 136.904 477.788C136.904 701.629 375.101 883.089 668.931 883.089Z" fill="white"/>
<path d="M317.765 272.344C255.273 329.09 220.47 404.118 220.47 482.092C220.47 522.254 229.714 562.023 247.675 599.128C265.635 636.233 291.961 669.948 325.147 698.347C358.334 726.746 397.732 749.273 441.092 764.642C484.453 780.012 530.926 787.922 577.859 787.922C609.627 787.922 641.254 784.298 671.904 777.144C657.285 778.615 642.578 779.351 627.859 779.351C578.299 779.352 529.225 770.999 483.438 754.769C437.651 738.539 396.048 714.751 361.004 684.763C325.96 654.774 298.162 619.173 279.197 579.991C260.231 540.809 250.47 498.814 250.47 456.404C250.47 390.617 273.949 326.4 317.765 272.344V272.344Z" fill="#F2F2F2"/>
<path d="M737.326 271.015C685.127 271.015 634.237 283.464 591.797 306.615C627.508 293.466 666.658 286.637 706.322 286.637C776.121 286.637 843.061 307.76 892.416 345.359C941.772 382.958 969.499 433.953 969.499 487.126C969.499 511.697 963.57 536.059 952.008 558.996C975.104 529.499 987.298 495.792 987.298 461.445C987.298 436.438 980.833 411.675 968.27 388.571C955.708 365.467 937.296 344.474 914.083 326.791C890.871 309.108 863.315 295.081 832.987 285.511C802.659 275.941 770.153 271.015 737.326 271.015Z" fill="#F7F7F7"/>
<path d="M661.508 682.511C713.707 682.511 764.597 670.062 807.037 646.911C771.326 660.06 732.176 666.889 692.512 666.889C622.713 666.889 555.773 645.766 506.418 608.167C457.062 570.568 429.335 519.573 429.335 466.399C429.335 441.829 435.264 417.467 446.826 394.529C423.73 424.027 411.536 457.734 411.536 492.08C411.536 517.088 418.001 541.851 430.564 564.955C443.126 588.059 461.539 609.052 484.751 626.735C507.963 644.418 535.519 658.445 565.847 668.015C596.175 677.585 628.681 682.511 661.508 682.511V682.511Z" fill="#E5E5E5"/>
</svg>
