<svg width="207" height="55" viewBox="0 0 207 55" fill="none" xmlns="http://www.w3.org/2000/svg">
<path class="logoPath" d="M27.2382 1.52148C19.5822 1.52148 13.3136 4.04387 8.03715 9.22072C2.78614 14.397 0.242249 20.5251 0.242249 28.0078C0.242249 35.4089 2.77476 41.5248 8.00786 46.7578C13.2408 51.9908 19.3645 54.5312 26.7657 54.5312C34.2247 54.5312 40.3557 52.0057 45.5587 46.8028C50.7616 41.5997 53.2891 35.4668 53.2891 28.0078C53.2891 20.6863 50.777 14.5803 45.5899 9.31839C40.43 4.05887 34.4416 1.52148 27.2382 1.52148V1.52148ZM26.7657 13.6719C30.551 13.6719 33.9579 15.1459 36.5683 17.9023L36.5797 17.9099C39.2101 20.6376 40.5875 24.1306 40.5875 28.0075C40.5875 31.8917 39.2065 35.3958 36.5719 38.1501C33.9585 40.8837 30.553 42.3357 26.7692 42.3357C23.0258 42.3357 19.6227 40.8608 16.9664 38.115L16.9551 38.1074C14.3228 35.3555 12.9472 31.8688 12.9472 28.0078C12.9472 24.1469 14.3228 20.6542 16.9551 17.9023C19.589 15.1488 22.9995 13.6719 26.7657 13.6719V13.6719Z" fill="#B2B2B2"/>
<path class="logoPath" d="M73.0136 16.6621C69.2219 16.6621 66.1948 17.9583 63.5195 20.7519V20.7595H63.5082C60.8368 23.5254 59.5668 26.7253 59.5668 30.74V53.1814H70.6039V33.7888C70.6039 32.1466 70.7884 30.7754 71.4594 29.574C72.1305 28.3725 73.5686 27.5056 74.9516 27.5056C76.2857 27.5056 77.7788 28.2 78.4574 29.4255C79.1673 30.6624 79.2621 31.9865 79.2621 33.7517V53.1814H90.2973V33.7888C90.2973 32.1438 90.4855 30.7619 91.1684 29.5583C91.8514 28.3548 93.3026 27.5056 94.6898 27.5056C96.0328 27.5056 97.5392 28.2003 98.2113 29.4411C98.8794 30.6745 98.9574 31.9816 98.9574 33.7517V53.1814H110V32.408C110 27.321 108.884 23.7182 106.914 21.3728H106.903V21.3652C104.245 18.1664 100.948 16.6621 96.4656 16.6621C93.182 16.6621 89.7795 18.2077 86.1238 21.6894L84.7429 22.9961L83.4441 21.6153C80.2281 18.2043 76.8609 16.6621 73.0066 16.6621H73.0136Z" fill="#B2B2B2"/>
<path class="logoPath" d="M143.355 1.52148C135.699 1.52148 129.431 4.04387 124.154 9.22072C118.903 14.397 116.359 20.5251 116.359 28.0078C116.359 35.4089 118.892 41.5248 124.125 46.7578C129.358 51.9908 135.482 54.5312 142.883 54.5312C150.342 54.5312 156.473 52.0057 161.676 46.8028C166.879 41.5997 169.406 35.4668 169.406 28.0078C169.406 20.6863 166.894 14.5803 161.707 9.31839C156.547 4.05887 150.559 1.52148 143.355 1.52148ZM142.883 13.6719C146.668 13.6719 150.083 15.1459 152.693 17.9023L152.705 17.9099C155.335 20.6376 156.705 24.1306 156.705 28.0075C156.705 31.8917 155.331 35.3958 152.697 38.1501C150.083 40.8837 146.67 42.3357 142.886 42.3357C139.143 42.3357 135.746 40.8608 133.089 38.115H133.078V38.1074C130.446 35.3555 129.063 31.8688 129.063 28.0078C129.063 24.1469 130.446 20.6542 133.078 17.9023C135.712 15.1488 139.115 13.6719 142.881 13.6719H142.883Z" fill="#B2B2B2"/>
<path class="logoPath" d="M173.15 0.578125V6.93363C173.15 13.523 175.004 18.1196 177.941 21.0996C180.879 24.0796 184.964 25.5079 189.672 25.5079C194.38 25.5079 198.463 24.0796 201.4 21.0996C204.338 18.1196 206.191 13.523 206.191 6.93363V0.578125H196.574V7.07423C196.574 10.39 195.804 12.6689 194.484 14.1309C193.164 15.5929 191.36 16.1094 189.672 16.1094C187.984 16.1094 186.178 15.5929 184.857 14.1309C183.537 12.6689 182.77 10.39 182.77 7.07423V0.578125H173.15Z" fill="#B2B2B2"/>
</svg>
